<?xml version="1.0"?>
<svg version="1.1" xmlns="http://www.w3.org/2000/svg" width="400px" height="100px" style=""><path fill="#388dc9" d="M203.664,74.72l0,4.08l-15.264,0l0-4.08l3.6-1.296l-1.152-3.504l-10.656,0l-1.2,3.456l3.744,1.344l0,4.08l-14.496,0l0-4.08l3.504-1.344l10.56-28.272l7.68-0.144l10.32,28.416z M189.264,64.784l-3.6-11.376l-3.792,11.376l7.392,0z M220.39248,50.72l0,22.992c0,8.352-2.496,12.768-10.944,12.768c-1.536,0-3.648-0.336-3.648-0.336l0.624-4.944l2.304,0c2.88,0,4.224-1.584,4.224-4.608l0-25.872l-3.6-1.44l0-4.08l14.64-0.24l0,4.32z"/><path fill="#" d=""/></svg>
